<svg id="Layer_1" data-name="Layer 1" xmlns="http://www.w3.org/2000/svg" viewBox="0 0 666.75 195.45"><defs><style>.cls-1{fill:#fff;}.cls-2{fill:#e74e0f;}</style></defs><path class="cls-1" d="M283.66,159.43c.82,2.67-.34,4.15-3,4.15H263.4a3.91,3.91,0,0,1-4.15-3l-6.48-18.44H202.45L196,160.6a3.73,3.73,0,0,1-4,3H174.55c-2.66,0-3.82-1.5-2.82-4.15L212.57,51.16a4,4,0,0,1,4.15-2.82h21.75c2,0,3.49.66,4.15,2.82Zm-74.4-36.36h36.86L227.69,70.42Z" transform="translate(0.16 0)"/><path class="cls-1" d="M423,48.34c2.33,0,3.65,1.16,3.65,3.48V159.93a3.31,3.31,0,0,1-3.65,3.65H407.22a3.31,3.31,0,0,1-3.65-3.65V77.06L373.51,160.6a3.79,3.79,0,0,1-4,3H356.07a3.92,3.92,0,0,1-4-3L322.2,77.06v82.87a3.32,3.32,0,0,1-3.65,3.65H302.61c-2.16,0-3.49-1.32-3.49-3.65V51.82a3.22,3.22,0,0,1,3.49-3.48h26.73a3.74,3.74,0,0,1,4,3l29.56,81.88,29.57-81.88c.5-2.16,1.82-3,4-3Z" transform="translate(0.16 0)"/><path class="cls-1" d="M554.17,159.43c.83,2.67-.33,4.15-3,4.15H533.91a3.92,3.92,0,0,1-4.15-3l-6.47-18.44H473l-6.47,18.44a3.74,3.74,0,0,1-4,3H445.07c-2.67,0-3.83-1.5-2.83-4.15L483.09,51.16a4,4,0,0,1,4.15-2.82H509c2,0,3.49.66,4.15,2.82Zm-74.39-36.36h36.86L498.2,70.42Z" transform="translate(0.16 0)"/><path class="cls-1" d="M663,48.34c2.32,0,3.65,1.16,3.65,3.48V159.93a3.32,3.32,0,0,1-3.65,3.65H640.2a4,4,0,0,1-4.15-2.66L592.7,79.39v80.54a3.32,3.32,0,0,1-3.65,3.65H573.11c-2.16,0-3.49-1.32-3.49-3.65V51.82a3.22,3.22,0,0,1,3.49-3.48H596c2,0,3.49.66,4.15,2.66l43.35,81.53V51.82c0-2.32,1.33-3.48,3.65-3.48Z" transform="translate(0.16 0)"/><path class="cls-1" d="M112,195.44H40a10.52,10.52,0,0,1-7.5-17.89l42.06-42.77L112,195.43Z" transform="translate(0.16 0)"/><path class="cls-2" d="M161.84,63.25v0l-4.57,12.11-1.59,4.22-6.09,16.14a7.32,7.32,0,0,1-9.44,4.27l-22.87-8.61-4.87-1.83a5.07,5.07,0,0,0-6.1,7.4l2.12,3.44L128.48,133a17,17,0,0,1,1.43,14.92L112,195.45,74.6,134.79,1.45,16.07A10.52,10.52,0,0,1,14.11.71L142.93,49.23l11.53,4.34,3.47,1.31h0A6.62,6.62,0,0,1,161.84,63.25Z" transform="translate(0.16 0)"/><polygon points="74.76 134.79 65.95 143.74 112.12 195.44 74.76 134.79"/></svg>