<?xml version="1.0" encoding="utf-8"?>
<!-- Generator: Adobe Illustrator 25.0.0, SVG Export Plug-In . SVG Version: 6.00 Build 0)  -->
<svg version="1.1" id="Layer_1" xmlns="http://www.w3.org/2000/svg" xmlns:xlink="http://www.w3.org/1999/xlink" x="0px" y="0px"
	 viewBox="0 0 566.93 195.44" style="enable-background:new 0 0 566.93 195.44;" xml:space="preserve">
<style type="text/css">
	.st0{fill:#3C3C3B;}
	.st1{fill:#E74E0F;}
</style>
<g>
	<g>
		<path class="st0" d="M260.72,148.74c0.66,2.13-0.27,3.32-2.39,3.32h-13.82c-1.59,0-2.79-0.66-3.32-2.39l-5.18-14.75h-40.26
			l-5.18,14.75c-0.53,1.73-1.59,2.39-3.19,2.39h-13.95c-2.13,0-3.06-1.2-2.26-3.32l32.68-86.62c0.66-1.73,1.86-2.26,3.32-2.26h17.4
			c1.59,0,2.79,0.53,3.32,2.26L260.72,148.74z M201.2,119.65h29.49l-14.75-42.12L201.2,119.65z"/>
		<path class="st0" d="M372.19,59.86c1.86,0,2.92,0.93,2.92,2.79v86.49c0,1.86-1.06,2.92-2.92,2.92h-12.62
			c-1.86,0-2.92-1.06-2.92-2.92v-66.3l-24.05,66.83c-0.4,1.59-1.59,2.39-3.19,2.39h-10.76c-1.59,0-2.66-0.8-3.19-2.39l-23.91-66.83
			v66.3c0,1.86-1.06,2.92-2.92,2.92h-12.75c-1.73,0-2.79-1.06-2.79-2.92V62.65c0-1.73,1.06-2.79,2.79-2.79h21.39
			c1.59,0,2.66,0.66,3.19,2.39l23.65,65.5l23.65-65.5c0.4-1.73,1.46-2.39,3.19-2.39H372.19z"/>
		<path class="st0" d="M477.14,148.74c0.66,2.13-0.27,3.32-2.39,3.32h-13.82c-1.59,0-2.79-0.66-3.32-2.39l-5.18-14.75h-40.26
			l-5.18,14.75c-0.53,1.73-1.59,2.39-3.19,2.39h-13.95c-2.13,0-3.06-1.2-2.26-3.32l32.68-86.62c0.66-1.73,1.86-2.26,3.32-2.26H441
			c1.59,0,2.79,0.53,3.32,2.26L477.14,148.74z M417.62,119.65h29.49l-14.75-42.12L417.62,119.65z"/>
		<path class="st0" d="M564.16,59.86c1.86,0,2.92,0.93,2.92,2.79v86.49c0,1.86-1.06,2.92-2.92,2.92h-18.2
			c-1.59,0-2.79-0.66-3.32-2.13l-34.68-65.23v64.44c0,1.86-1.06,2.92-2.92,2.92h-12.75c-1.73,0-2.79-1.06-2.79-2.92V62.65
			c0-1.73,1.06-2.79,2.79-2.79h18.33c1.59,0,2.79,0.53,3.32,2.13l34.68,65.23V62.65c0-1.86,1.06-2.79,2.92-2.79H564.16z"/>
	</g>
	<path class="st0" d="M111.97,195.44H40.03c-9.33,0-14.04-11.24-7.5-17.89l42.06-42.77l37.37,60.65L111.97,195.44z"/>
	<path class="st1" d="M161.84,63.25c0,0.01-0.01,0.02-0.01,0.03l-4.57,12.11l-1.59,4.22l-6.09,16.14c-1.43,3.79-5.66,5.7-9.44,4.27
		l-22.87-8.61l-4.87-1.83c-4.52-1.7-8.63,3.29-6.1,7.4l2.12,3.44l20.06,32.56c2.76,4.48,3.29,9.99,1.43,14.92l-17.94,47.55
		L74.6,134.79L1.45,16.07C-3.81,7.53,4.73-2.82,14.11,0.71l128.82,48.52l11.53,4.34l3.47,1.31c0,0,0,0,0.01,0
		C161.3,56.15,163.02,59.87,161.84,63.25z"/>
	<polygon points="74.6,134.79 65.79,143.74 111.96,195.44 	"/>
	<g>
		<path class="st1" d="M174.65,191.78V171.9c0-0.38-0.21-0.62-0.62-0.62h-2.52c-0.38,0-0.62,0.24-0.62,0.62v22.61
			c0,0.41,0.24,0.62,0.62,0.62h14.34c0.38,0,0.59-0.21,0.59-0.62v-2.1c0-0.38-0.21-0.62-0.59-0.62H174.65z"/>
		<path class="st1" d="M199.29,170.97c-7.17,0-12.37,5.13-12.37,12.2c0,7.13,5.2,12.27,12.37,12.27c7.2,0,12.41-5.13,12.41-12.27
			C211.69,176.1,206.49,170.97,199.29,170.97z M199.29,191.99c-4.96,0-8.55-3.72-8.55-8.82c0-5.1,3.58-8.75,8.55-8.75
			c5,0,8.58,3.65,8.58,8.75C207.87,188.27,204.28,191.99,199.29,191.99z"/>
		<path class="st1" d="M238.37,182.17h-11.03c-0.41,0-0.62,0.24-0.62,0.62v1.96c0,0.38,0.21,0.59,0.62,0.59h7.62
			c-0.55,3.96-3.93,6.79-8.24,6.79c-5,0-8.58-3.76-8.58-8.96c0-5.17,3.58-8.93,8.58-8.93c3.79,0,6.72,2.21,7.79,5.48
			c0.17,0.28,0.38,0.41,0.72,0.41h2.69c0.41,0,0.69-0.24,0.55-0.69c-1.34-5-6-8.48-11.79-8.48c-7.17,0-12.37,5.13-12.37,12.2
			c0,7.13,5.2,12.27,12.37,12.27c7.24,0,12.34-5.1,12.34-12.16C239.02,182.55,239.02,182.17,238.37,182.17z"/>
		<path class="st1" d="M243.44,171.28c-0.38,0-0.62,0.24-0.62,0.62v22.61c0,0.41,0.24,0.62,0.62,0.62h2.52
			c0.41,0,0.62-0.24,0.62-0.62V171.9c0-0.38-0.21-0.62-0.62-0.62H243.44z"/>
		<path class="st1" d="M254.74,177.76c0-2.31,1.96-3.72,4.76-3.72s4.62,1.38,4.96,3.83c0.14,0.41,0.31,0.59,0.65,0.59h2.45
			c0.41,0,0.65-0.24,0.59-0.65c-0.41-4.2-3.79-6.82-8.55-6.82c-5.13,0-8.68,2.69-8.68,7c0,8.89,14.06,4.55,14.06,10.48
			c0,2.38-2.17,3.93-5.31,3.93c-3.31,0-5.27-1.76-5.62-4.17c-0.1-0.38-0.28-0.55-0.62-0.55h-2.58c-0.41,0-0.62,0.21-0.59,0.62
			c0.45,4.31,3.89,7.17,9.24,7.17c5.48,0,9.3-2.72,9.3-7.13C268.8,179.17,254.74,183.69,254.74,177.76z"/>
		<path class="st1" d="M331.1,177.76c0-2.31,1.96-3.72,4.76-3.72c2.79,0,4.62,1.38,4.96,3.83c0.14,0.41,0.31,0.59,0.65,0.59h2.45
			c0.41,0,0.65-0.24,0.59-0.65c-0.41-4.2-3.79-6.82-8.55-6.82c-5.13,0-8.68,2.69-8.68,7c0,8.89,14.06,4.55,14.06,10.48
			c0,2.38-2.17,3.93-5.31,3.93c-3.31,0-5.27-1.76-5.62-4.17c-0.1-0.38-0.28-0.55-0.62-0.55h-2.58c-0.41,0-0.62,0.21-0.59,0.62
			c0.45,4.31,3.89,7.17,9.24,7.17c5.48,0,9.3-2.72,9.3-7.13C345.16,179.17,331.1,183.69,331.1,177.76z"/>
		<path class="st1" d="M271.01,171.28c-0.38,0-0.62,0.24-0.62,0.62v2.1c0,0.38,0.24,0.62,0.62,0.62h6.69v19.88
			c0,0.41,0.21,0.62,0.62,0.62h2.52c0.38,0,0.62-0.21,0.62-0.62v-19.88h6.68c0.38,0,0.62-0.24,0.62-0.62v-2.1
			c0-0.38-0.24-0.62-0.62-0.62H271.01z"/>
		<path class="st1" d="M292.41,171.28c-0.38,0-0.62,0.24-0.62,0.62v22.61c0,0.41,0.24,0.62,0.62,0.62h2.52
			c0.41,0,0.62-0.24,0.62-0.62V171.9c0-0.38-0.21-0.62-0.62-0.62H292.41z"/>
		<path class="st1" d="M311.74,174.42c4.07,0,7.13,2.41,8.17,5.96c0.17,0.38,0.34,0.48,0.72,0.48h2.59c0.41,0,0.69-0.24,0.59-0.65
			c-1.21-5.51-5.89-9.24-12.06-9.24c-7.17,0-12.37,5.13-12.37,12.2c0,7.13,5.2,12.27,12.37,12.27c6.17,0,10.89-3.79,12.06-9.3
			c0.1-0.41-0.17-0.66-0.59-0.66h-2.59c-0.38,0-0.55,0.04-0.72,0.48c-1.03,3.58-4.1,6.03-8.17,6.03c-4.96,0-8.55-3.72-8.55-8.82
			C303.19,178.07,306.78,174.42,311.74,174.42z"/>
		<path class="st1" d="M371.54,171.28h-3.48c-0.34,0-0.59,0.14-0.72,0.48l-8.82,22.68c-0.14,0.45,0.03,0.69,0.48,0.69h2.76
			c0.34,0,0.59-0.14,0.72-0.52l1.72-4.62h11.17l1.72,4.62c0.14,0.38,0.38,0.52,0.72,0.52h2.76c0.45,0,0.65-0.24,0.48-0.69
			l-8.82-22.68C372.09,171.42,371.85,171.28,371.54,171.28z M365.33,186.89l4.45-11.96l4.45,11.96H365.33z"/>
		<path class="st1" d="M400.31,171.28c-0.38,0-0.62,0.24-0.62,0.62v18.26l-10.58-18.44c-0.14-0.31-0.38-0.45-0.72-0.45h-3.69
			c-0.38,0-0.62,0.24-0.62,0.62v22.61c0,0.41,0.24,0.62,0.62,0.62h2.52c0.41,0,0.62-0.21,0.62-0.62v-18.26l10.58,18.44
			c0.14,0.31,0.41,0.45,0.76,0.45h3.69c0.38,0,0.59-0.24,0.59-0.62V171.9c0-0.38-0.21-0.62-0.59-0.62H400.31z"/>
		<path class="st1" d="M416.34,171.28h-7.2c-0.38,0-0.62,0.24-0.62,0.62v22.61c0,0.41,0.24,0.62,0.62,0.62h7.2
			c7.24,0,12.23-4.89,12.23-11.96C428.57,176.17,423.58,171.28,416.34,171.28z M416.31,191.78h-3.89c-0.04,0-0.1,0-0.14,0v-0.07
			v-16.99c0-0.03,0-0.07,0-0.1h0.1h3.93c5,0,8.44,3.45,8.44,8.51C424.75,188.27,421.3,191.78,416.31,191.78z"/>
		<path class="st1" d="M462.52,171.28c-0.34,0-0.62,0.17-0.69,0.52l-7.13,18.47l-7.1-18.47c-0.1-0.34-0.34-0.52-0.72-0.52h-4.38
			c-0.38,0-0.62,0.24-0.62,0.62v22.61c0,0.41,0.24,0.62,0.62,0.62h2.52c0.41,0,0.62-0.24,0.62-0.62v-18.68l7.2,18.78
			c0.07,0.34,0.34,0.52,0.69,0.52h2.34c0.38,0,0.62-0.17,0.72-0.52l7.17-18.68v18.57c0,0.41,0.24,0.62,0.62,0.62h2.52
			c0.41,0,0.62-0.24,0.62-0.62V171.9c0-0.38-0.21-0.62-0.62-0.62H462.52z"/>
		<path class="st1" d="M483.75,170.97c-7.17,0-12.37,5.13-12.37,12.2c0,7.13,5.2,12.27,12.37,12.27c7.2,0,12.41-5.13,12.41-12.27
			C496.16,176.1,490.95,170.97,483.75,170.97z M483.75,191.99c-4.96,0-8.55-3.72-8.55-8.82c0-5.1,3.58-8.75,8.55-8.75
			c5,0,8.58,3.65,8.58,8.75C492.33,188.27,488.75,191.99,483.75,191.99z"/>
		<path class="st1" d="M514.18,184.17c2.59-0.93,4.14-3.17,4.14-6.13c0-4.13-2.96-6.75-7.62-6.75h-10.1c-0.38,0-0.62,0.24-0.62,0.62
			v22.61c0,0.41,0.24,0.62,0.62,0.62h2.52c0.41,0,0.62-0.21,0.62-0.62v-8.65h6.89c2.27,0,3.65,1.76,3.72,4.41
			c0,1.69,0.1,3.38,0.24,4.31c0.03,0.38,0.28,0.55,0.65,0.55h2.65c0.41,0,0.62-0.24,0.55-0.65c-0.21-1.03-0.31-2.79-0.34-4.65
			C518.01,186.79,516.59,184.86,514.18,184.17z M510.32,182.82h-6.58v-8.2h6.58c2.55,0,4.13,1.55,4.13,4.07
			S512.87,182.82,510.32,182.82z"/>
		<path class="st1" d="M523.18,171.28c-0.38,0-0.62,0.24-0.62,0.62v22.61c0,0.41,0.24,0.62,0.62,0.62h15.16
			c0.41,0,0.62-0.21,0.62-0.62v-2.1c0-0.38-0.21-0.62-0.62-0.62h-12.03v-7.1h10.99c0.41,0,0.62-0.24,0.62-0.62v-1.96
			c0-0.41-0.24-0.62-0.62-0.62h-10.99v-6.86h12.03c0.41,0,0.62-0.24,0.62-0.62v-2.1c0-0.38-0.21-0.62-0.62-0.62H523.18z"/>
		<path class="st1" d="M554.88,190.61c-1.48,0-2.52,0.97-2.52,2.38c0,1.41,1.03,2.38,2.52,2.38c1.45,0,2.52-0.97,2.52-2.38
			C557.4,191.58,556.33,190.61,554.88,190.61z"/>
		<path class="st1" d="M564.57,190.61c-1.48,0-2.52,0.97-2.52,2.38c0,1.41,1.03,2.38,2.52,2.38c1.45,0,2.52-0.97,2.52-2.38
			C567.08,191.58,566.02,190.61,564.57,190.61z"/>
	</g>
</g>
</svg>
