<?xml version="1.0"?>
<svg xmlns="http://www.w3.org/2000/svg" xmlns:xlink="http://www.w3.org/1999/xlink" xmlns:svgjs="http://svgjs.com/svgjs" version="1.1" width="512" height="512" x="0" y="0" viewBox="0 0 50 50" style="enable-background:new 0 0 512 512" xml:space="preserve" class=""><g><g id="_x31_20"><path d="m47.2 35.6v-12.8c0-.2-.1-.3-.2-.4l-6.2-3.6v-5c0-.2-.1-.4-.2-.4-.1-.1-14.7-8.6-14.8-8.6-.2-.1-.5-.1-.7.2-.1.2-.1.5.2.7l14.1 8.2-10.4 5.7c-4-2.3-13.5-7.9-20-11.7l10.2-5.9 2 1.2c.2.1.5.1.7-.2.1-.2.1-.5-.2-.6l-2.3-1.3c-.2-.1-.3-.1-.5 0l-11.1 6.4c-.2.1-.3.3-.3.4v12.5s.4-.2-4.5 2.6c-.2.1-.3.3-.3.4v12.8c0 .2.1.3.2.4l21 12.2c.2.1.3.1.5 0 2.3-1.3-8.3 4.8 22.3-12.9.4 0 .5-.1.5-.3zm-42.9-12.1 3.7-2.1c7.8 4.5 15.4 9 20 11.6l-3.7 2.1c-2-1.2 7.4 4.3-20-11.6zm35.3-9v11.7c-3.1 1.8-10 5.8-10.2 5.9 0-14.7 0-11.1 0-11.7 2.8-1.6 7.8-4.4 10.2-5.9zm-11.1 5.9v11.7c-1-.6 5.1 2.9-20-11.6v-11.7zm17.1 2.4-5 2.9v-5.8zm-41.8 1.6c22.4 13 19.7 11.5 20 11.6v11.7l-19.9-11.7zm21 23.2c0-16 0-10.5 0-11.7 5.7-3.3 1.9-1.1 10.2-5.9v11.7zm11.2-6.4v-11.7c13.9-8.1 9.1-5.3 10.2-5.9v11.7z" fill="#e7500f" data-original="#000000" class=""/><path d="m45.4 25.8c0-.2-.1-.3-.3-.4s-.3-.1-.5 0l-7.6 4.4c-.2.1-.3.3-.3.4v8.8c0 .2.1.3.3.4s.3.1.5 0l7.7-4.4c.2-.1.3-.3.3-.4zm-3.2 2.1v7.7l-2.2 1.3v-7.7zm-4.5 2.6 1.2-.7v7.7l-1.2.7zm5.5 4.5v-7.7l1.2-.7v7.7z" fill="#e7500f" data-original="#000000" class=""/><path d="m6.3 27.8c-.3 0-.5.2-.5.5v6.6c0 .3.2.5.5.5.3 0 .5-.2.5-.5v-6.6c0-.3-.2-.5-.5-.5z" fill="#e7500f" data-original="#000000" class=""/><path d="m8.8 29.3c-.3 0-.5.2-.5.5v6.6c0 .3.2.5.5.5.3 0 .5-.2.5-.5v-6.6c0-.3-.2-.5-.5-.5z" fill="#e7500f" data-original="#000000" class=""/><path d="m11.3 30.7c-.3 0-.5.2-.5.5v6.6c0 .3.2.5.5.5s.5-.2.5-.5v-6.6c0-.3-.2-.5-.5-.5z" fill="#e7500f" data-original="#000000" class=""/><path d="m13.8 32.2c-.3 0-.5.2-.5.5v6.6c0 .3.2.5.5.5.3 0 .5-.2.5-.5v-6.6c0-.3-.2-.5-.5-.5z" fill="#e7500f" data-original="#000000" class=""/><path d="m16.3 33.6c-.3 0-.5.2-.5.5v6.6c0 .3.2.5.5.5.3 0 .5-.2.5-.5v-6.6c0-.2-.2-.5-.5-.5z" fill="#e7500f" data-original="#000000" class=""/><path d="m18.8 35.1c-.3 0-.5.2-.5.5v6.6c0 .3.2.5.5.5.3 0 .5-.2.5-.5v-6.6c0-.3-.2-.5-.5-.5z" fill="#e7500f" data-original="#000000" class=""/><path d="m21.4 36.6c-.3 0-.5.2-.5.5v6.6c0 .3.2.5.5.5.3 0 .5-.2.5-.5v-6.6c0-.3-.3-.5-.5-.5z" fill="#e7500f" data-original="#000000" class=""/><path d="m34.2 32.2c0-.2-.1-.3-.3-.4s-.3-.1-.5 0l-7.7 4.4c-.2.1-.3.3-.3.4v8.8c0 .2.1.3.3.4s.3.1.5 0l7.7-4.4c.2-.1.3-.3.3-.4zm-3.2 2.2v7.7l-2.2 1.3v-7.7zm-4.5 2.6 1.2-.7v7.7l-1.2.7zm5.5 4.5v-7.7l1.2-.7v7.7z" fill="#e7500f" data-original="#000000" class=""/><path d="m10.5 19.4c0 .3.2.5.5.5.3 0 .5-.2.5-.5v-6.6c0-.3-.2-.5-.5-.5s-.5.2-.5.5z" fill="#e7500f" data-original="#000000" class=""/><path d="m13.5 21.4c.3 0 .5-.2.5-.5v-6.6c0-.3-.2-.5-.5-.5-.3 0-.5.2-.5.5v6.6c0 .2.2.5.5.5z" fill="#e7500f" data-original="#000000" class=""/><path d="m16 22.8c.3 0 .5-.2.5-.5v-6.6c0-.3-.2-.5-.5-.5-.3 0-.5.2-.5.5v6.6c0 .3.2.5.5.5z" fill="#e7500f" data-original="#000000" class=""/><path d="m18.5 24.3c.3 0 .5-.2.5-.5v-6.6c0-.3-.2-.5-.5-.5-.3 0-.5.2-.5.5v6.6c0 .3.2.5.5.5z" fill="#e7500f" data-original="#000000" class=""/><path d="m21 25.7c.3 0 .5-.2.5-.5v-6.6c0-.3-.2-.5-.5-.5-.3 0-.5.2-.5.5v6.6c0 .3.3.5.5.5z" fill="#e7500f" data-original="#000000" class=""/><path d="m23.5 27.2c.3 0 .5-.2.5-.5v-6.6c0-.3-.2-.5-.5-.5s-.5.2-.5.5v6.6c0 .3.3.5.5.5z" fill="#e7500f" data-original="#000000" class=""/><path d="m26.1 28.7c.3 0 .5-.2.5-.5v-6.6c0-.3-.2-.5-.5-.5-.3 0-.5.2-.5.5v6.6c0 .2.2.5.5.5z" fill="#e7500f" data-original="#000000" class=""/><path d="m23.6 4.7c.2.1.5.1.7-.2.1-.2.1-.5-.2-.7l-1.1-.6c-.2-.1-.5-.1-.7.2-.1.2-.1.5.2.7z" fill="#e7500f" data-original="#000000" class=""/><path d="m30.2 30c0 .3.2.5.5.5.1 0 .2 0 .3-.1l7.7-4.4c.2-.1.3-.3.3-.4v-8.8c0-.2-.1-.3-.3-.4s-.3-.1-.5 0l-7.7 4.4c-.2.1-.3.3-.3.4zm3.3-2.2v-7.7l2.2-1.3v7.7zm4.4-2.6-1.2.7v-7.7l1.2-.7zm-5.4-4.5v7.7l-1.2.7v-7.7z" fill="#e7500f" data-original="#000000" class=""/></g></g></svg>
