<?xml version="1.0"?>
<svg xmlns="http://www.w3.org/2000/svg" xmlns:xlink="http://www.w3.org/1999/xlink" xmlns:svgjs="http://svgjs.com/svgjs" version="1.1" width="512" height="512" x="0" y="0" viewBox="0 0 6.82666 6.82666" style="enable-background:new 0 0 512 512" xml:space="preserve"><g><g id="Layer_x0020_1"><g id="_430735616"><path id="_430737512" d="m5.77067 6.12239c-.0381693 0-.0692126-.0309724-.0692126-.0691929v-.646819c0-.0382323.031-.0692087.0692126-.0692087.0382283-.00000394.0692087.0309882.0692087.0692126v.646795c0 .0382323-.0309921.0692283-.0692087.0692126z" fill="#e7500f" data-original="#000000"/><path id="_430738016" d="m3.80463 6.12239c-.0381654 0-.0692165-.0309724-.0692165-.0691929l.00000787-.646819c0-.0382323.031-.0692087.0692087-.0692087.0382323-.00000394.0692047.0309882.0692047.0692126l.00000787.646795c0 .0382323-.031.0692283-.0692126.0692126z" fill="#e7500f" data-original="#000000"/><path id="_430737800" d="m3.28679 5.97156h-2.82665c-.0382323 0-.0692323-.0309646-.0692323-.069189l.00001968-5.12893c0-.0382323.0309803-.0692047.069185-.0692047l4.07617-.00000787c.0382283 0 .0692126.031.0692126.0692244v1.29811c0 .0382283-.0309961.0692244-.0692126.0692244-.0382835-.00001181-.0692126-.0309882-.0692126-.0692087v-1.22893h-3.93771v4.99048h2.75744c.0381732 0 .0691614.0310157.0691614.0692362.00005118.0382087-.031.0692126-.0692087.0692126l.00004724-.00002362z" fill="#e7500f" data-original="#000000"/><path id="_430737848" d="m.968035 2.22481h.815996v-.731835h-.815996zm.885209.138425h-.954421c-.0381732 0-.0692165-.0309764-.0692165-.0692087l.00000787-.870264c0-.0382244.0309921-.0692008.0692087-.0692008l.954421-.00001181c.0382244 0 .0692126.0309961.0692126.0692205v.870252c0 .0382244-.031.0692126-.0692126.0692126z" fill="#e7500f" data-original="#000000"/><path id="_430737536" d="m4.02217 1.7168h-1.70364c-.0382283 0-.0691142-.0309567-.0691142-.0691929.00001181-.0382205.0308701-.0692008.0690866-.0692008l1.70367-.00000394c.0381732 0 .0691614.0309843.0691614.0692047.00004724.0382362-.031.0692126-.0692087.0692126l.00004724-.00001968z" fill="#e7500f" data-original="#000000"/><path id="_430737968" d="m3.58116 2.1394h-.821512c-.0382283 0-.0692559-.0309882-.0692559-.0692087.00004331-.0382323.031-.0692126.0692126-.0692126h.821555c.0382323 0 .069185.0309882.069185.0692126.00002756.0382008-.0309961.0692087-.069185.0692087z" fill="#e7500f" data-original="#000000"/><path id="_430738088" d="m.968035 3.7038h.815996v-.731807h-.815996zm.885209.138421h-.954421c-.0381732 0-.0692165-.0309646-.0692165-.069189l.00000787-.870248c0-.0382283.0309921-.0692008.0692087-.0692008l.954421-.00001181c.0382244 0 .0692126.0309921.0692126.0692126v.870224c0 .0382323-.031.0692362-.0692126.0692126z" fill="#e7500f" data-original="#000000"/><path id="_430736840" d="m3.98139 3.19585h-1.66287c-.0382283 0-.0691142-.0309921-.0691142-.0692126.00001181-.0382283.0308701-.0692087.0690866-.0692087h1.66289c.0382244 0 .0691969.0309882.0691969.0692087.00001575.0382008-.031.0692126-.0691969.0692126z" fill="#e7500f" data-original="#000000"/><path id="_430737008" d="m3.58116 3.61839h-.821512c-.0382283 0-.0692559-.0309685-.0692559-.0691929.00004331-.0382205.031-.0692087.0692126-.0692087l.821555-.00002362c.0382323 0 .069185.0310118.069185.0692323.00002756.0382126-.0309961.0692126-.069185.0691929z" fill="#e7500f" data-original="#000000"/><path id="_430736816" d="m.968035 5.18282h.815996v-.731803h-.815996zm.885209.138425h-.954421c-.0381732 0-.0692165-.0309685-.0692165-.0691969l.00000787-.870244c0-.0382283.0309921-.0692047.0692087-.0692047l.954421-.00000787c.0382244 0 .0692126.0309961.0692126.0692205v.87022c0 .0382283-.031.0692283-.0692126.0692126z" fill="#e7500f" data-original="#000000"/><path id="_430737344" d="m3.26478 4.67485h-.946252c-.0382283 0-.0691142-.0309843-.0691142-.0692008.00001181-.0382402.0308701-.0692126.0690866-.0692126l.94628-.00001181c.0382323 0 .0691772.031.0691772.0692244.00003543.0382126-.0309882.0692087-.0691772.0692008z" fill="#e7500f" data-original="#000000"/><path id="_430736696" d="m3.31464 5.09741h-.554992c-.0382283 0-.0692559-.0309724-.0692559-.0691929.00004331-.038248.031-.0692165.0692126-.0692165l.555035-.00001181c.0382323 0 .0691969.031.0691969.0692283.00001575.0382087-.0310079.0692087-.0691969.0691929z" fill="#e7500f" data-original="#000000"/><path id="_430736720" d="m3.34865 5.00546c-.0177874 0-.0354646-.00674409-.0490472-.0202638l-.0924016-.0924488c-.0901929-.0902717-.0902323-.237122 0-.32739l.181244-.181232c.0435866-.0436102.101732-.0676142.163732-.0676142.0619134-.00000394.120043.0240197.163661.0676142l.0882047.0881614c.0270315.0270354.0270157.0708661-.00001575.0978937-.0270236.0270118-.0708858.0270236-.0979252 0l-.0880669-.088189c-.0175197-.017437-.0408661-.0270591-.0658583-.0270591-.0249803-.00000394-.0484213.00962598-.0658465.0270748l-.181157.181209c-.0363346.0363071-.0363346.0953701-.00003937.131673l.0923976.0924252c.0270315.0270079.0270315.0708583 0 .0978819-.0135669.0135039-.0312402.0202717-.0488819.0202638z" fill="#e7500f" data-original="#000000"/><path id="_430737296" d="m6.22672 5.00546c-.017685 0-.0353701-.00674409-.0489449-.0202638-.0270276-.0270472-.0270394-.0708465 0-.0978819l.0924173-.092437c.0175709-.0174606.0271339-.0408307.0271339-.0658268.00000787-.0249843-.00961024-.0483622-.0271457-.065811l-.181185-.181248c-.0362874-.0362795-.0953071-.0362874-.13172.00002362l-.0880236.0881417c-.0270394.0270354-.0709449.0270551-.0979803.00003543-.0270315-.0270433-.0270315-.0708622 0-.0978858l.0882441-.0881811c.090248-.0902756.237154-.0902559.327394 0l.181205.18122c.0436378.0436063.0676378.101744.0676378.163705.00000394.0619606-.0240276.120114-.0676457.163717l-.0924016.0924173c-.0135748.0135157-.031248.0202835-.0489843.0202756z" fill="#e7500f" data-original="#000000"/><path id="_430737200" d="m4.00843 2.9707h1.56916c.0426575-.065752.143705-.241209.153913-.439988-.0890276-.0446811-.289098-.162673-.376575-.357197-.0581339.00214173-.156094.00145276-.257024-.0188622-.156898-.0315787-.250409-.0948189-.304846-.166205-.0543858.0713622-.147917.134626-.304843.166205-.101012.0203031-.198984.0210394-.257016.0188622-.0874764.1945-.287551.312535-.376587.357197.0102598.19872.11115.37415.153819.439988zm1.60571.138421h-1.6421c-.0217362 0-.0422087-.0102008-.0552992-.0275512-.0083937-.0112165-.206681-.277965-.201272-.595799.00048819-.0276457.0174252-.0523425.0429016-.0628386.00290157-.00116929.289701-.122142.360717-.342913.00997244-.0312402.0406142-.051126.0731693-.0476181.00494094.00048032.501315.0490748.531957-.236224.00385433-.0351654.0335157-.0618189.0688425-.0618189.0353701-.00000787.0650039.0266535.0688543.0618189.0306457.285287.526898.236717.531941.236209.0326024-.00348031.0630945.0164646.0731772.0476339.0714094.221949.357713.341732.360602.342913.0256181.0104843.0425394.0352047.0428937.0628386.00553937.317823-.192736.584598-.201142.595799-.0130669.0173346-.0335236.0275512-.0552402.0275512z" fill="#e7500f" data-original="#000000"/><path id="_430736888" d="m4.79306 3.68117c-.233315 0-.453598-.0639055-.620138-.179961-.17422-.121382-.270114-.285197-.270114-.461303.00002362-.0382244.031-.0692087.0692087-.0692087.0382598 0 .0692126.0309921.0692126.0692087.00002756.27728.337283.502854.751831.502854.414579-.00001181.751835-.225575.751835-.502854.00003937-.0382244.031-.0692087.0692126-.0692087.0382677 0 .0692087.0309921.0692087.0692087.00004331.176087-.0959961.339933-.270114.461303-.166642.116051-.386787.179976-.620142.179961z" fill="#e7500f" data-original="#000000"/><path id="_430737056" d="m4.65442 2.49806.0426654.0446654c.0145433.0152205.0213504.0362598.0185906.0571417l-.00837008.0612205.055748-.0268189c.0189803-.0091378.0410591-.00912205.0600433.00002362l.0556693.0267953-.00832283-.0612362c-.00287795-.0208701.00396457-.0418976.0185-.0571181l.0428071-.0446732-.0608307-.0110315c-.0207638-.00375591-.0385709-.0167441-.0485433-.0353071l-.0293228-.0544213-.0293031.0544213c-.00994488.0185472-.0278819.031563-.0485591.035315l-.0607717.0110236zm-.0329291.350441c-.0144331 0-.0287402-.00446063-.0407559-.0132087-.0205039-.0149921-.0312402-.0400472-.027878-.0652913l.0211614-.155713-.10863-.113551c-.0176299-.0184134-.0236693-.0449764-.0158622-.0692008.00796063-.0242323.0284724-.0421772.0534685-.0467165l.154669-.0280512.0745118-.138366c.0120039-.0224409.0354016-.0364016.060878-.0364016v-.00001181c.0254803 0 .0489055.0139961.0609173.0364291l.0745394.13835.154539.0280394c.0250827.00454331.0456142.0225039.0534213.0467283.00794094.0242165.00179921.050815-.0157441.0692126l-.108618.113539.0211929.155697c.00335039.0252283-.00737795.0503346-.0280472.0653071-.0205118.0149646-.0476969.0174252-.0706496.00637008l-.141551-.0682165-.1415.0682165c-.00961811.00456693-.019878.00685039-.030063.00683858z" fill="#e7500f" data-original="#000000"/><path id="_430736792" d="m4.22618 2.71396c-.0116772 0-.0235866-.00295669-.0344016-.00921654-.0331378-.0190906-.0445748-.0613858-.0254724-.0945157.129193-.224535-.0311181-.459382-.0379646-.469272-.0218268-.0312992-.0142913-.0744291.016937-.0963189.0312677-.0219016.0742638-.0144803.096248.0166772.00903937.0127638.218461.315996.0446929.617957-.0126772.022252-.0360433.0347047-.0600394.034689z" fill="#e7500f" data-original="#000000"/><path id="_430735904" d="m5.3599 2.71396c-.0239567 0-.0472677-.012437-.0600079-.034689-.173854-.301961.035689-.605193.0446929-.617957.0220197-.031252.0652559-.038689.0964882-.0166378.0311339.0219921.0385787.0650748.0167047.0963031-.00704331.0102323-.167146.244909-.0379724.469248.0191417.0331142.00769685.0754449-.0254764.0945157-.0108031.00624409-.0227047.00923228-.0344843.00923228l.00005512-.00001575z" fill="#e7500f" data-original="#000000"/><path id="_430736432" d="m3.83951 2.85582c-.0282205 0-.0548307-.0173701-.0650394-.0454094-.0131969-.0358898.00528346-.0756378.0410945-.0887953l.386933-.141858c.0357913-.0131969.0755591.00529921.0887756.0411654.0131496.0358858-.0052874.0756535-.0412126.088811l-.386756.141815c-.00784646.00288976-.0158976.00427559-.0237953.00427165z" fill="#e7500f" data-original="#000000"/><path id="_430736384" d="m5.74667 2.85582c-.00794094 0-.016-.00136614-.023815-.00425197l-.386909-.14185c-.0357992-.0131654-.054315-.0529016-.0410984-.0887953.0131457-.0358937.052874-.0543386.0887953-.0411417l.386823.141831c.0359055.0131417.0542795.0529252.0411929.0887992-.010315.0280236-.0367795.0454134-.0649882.0454094z" fill="#e7500f" data-original="#000000"/><path id="_430736360" d="m6.28857 6.12239h-3.00178c-.0382323 0-.0692598-.0309724-.0692598-.0691929l.00004724-.831315c0-.496539.484311-.900504 1.07958-.900504l.0195906-.00000394c.0382244 0 .0692126.0309921.0692126.0692165 0 .0381969-.031.0692126-.0692126.0692126l-.0195748-.00000394c-.51898 0-.94122.341878-.94122.762098l.00005118.762071h2.86336v-.762087c0-.420217-.422252-.762079-.941224-.762079l-.0195787-.00000394c-.0381693 0-.0692244-.0309882-.0692244-.0692087.00001181-.0382323.0310079-.0692126.0692244-.0692126l.0195787-.00000394c.595276 0 1.07963.40398 1.07963.900524l.00001575.83128c0 .0382323-.0310197.0692283-.0692126.0692126z" fill="#e7500f" data-original="#000000"/><path id="_430736552" d="m4.31675 4.4598c-.0381732 0-.0692087-.0309882-.0692087-.0692087v-.314835c0-.0382323.0309961-.0691969.0692087-.0691969.0382244-.00001575.0692126.0309803.0692126.0692126v.314815c0 .0382008-.031.0692165-.0692126.0692126z" fill="#e7500f" data-original="#000000"/><path id="_430736144" d="m5.25856 4.4598c-.0381693 0-.0692244-.0309882-.0692244-.0692087l.00001181-.302803c0-.0382323.0309961-.0692087.0692126-.0692087.0382323-.00000394.0691969.0309882.0691969.0692087l.00001575.302799c0 .0382008-.0310079.0692165-.0692126.0692126z" fill="#e7500f" data-original="#000000"/><path id="_430736048" d="m4.79333 4.44269c-.188276 0-.371803-.109516-.516594-.308417-.150756-.207181-.259421-.508248-.314098-.870709-.00574016-.0378071.0203071-.0730551.0580433-.0787638.0379843-.00573228.0730433.0203189.078815.0581102.0514646.340559.151406.620634.289102.809898.119831.164484.259787.251469.404705.251469.00002756-.00000787.00012205 0 .00012205 0 .246799-.00006299.576992-.278988.695236-1.06485.00565354-.037811.0408465-.0638976.0786929-.0581457.0378622.0056811.0639409.0409409.0581654.0787283-.0546339.363339-.163413.665256-.314457.873114-.145122.199567-.328996.309531-.517638.309579.00001181-.00000787-.00012205 0-.00009449-.00000787z" fill="#e7500f" data-original="#000000"/><path id="_430736600" d="m4.21525 4.61101.335732.315264.13826-.178433-.36211-.264114zm.343744.487024c-.0175236 0-.0344921-.00666142-.0473465-.0187598l-.439902-.413217c-.027248-.0255236-.0293189-.0680472-.00468898-.0960945l.197677-.225039c.0236772-.0268976.0637874-.0313307.092748-.0102559l.470945.343311c.0151378.0110315.0250748.0277165.0277205.046248.00266142.0185039-.00228346.0373189-.0138228.0521102l-.228618.294878c-.0118937.0154094-.0298504.0250827-.0493071.0266102-.00179134.00012992-.00361024.0002126-.00540551.00020866z" fill="#e7500f" data-original="#000000"/><path id="_430736288" d="m4.88606 4.74784.138323.178433.335728-.315264-.111772-.127283-.36228.264114zm.130256.350193c-.00178346 0-.00360236-.00006693-.00541732-.00020866-.0194488-.00155118-.0373622-.0111772-.0492559-.0265945l-.228657-.294898c-.0115118-.0147874-.0164724-.0335787-.0138307-.0521063.00269291-.0185394.0126181-.0351969.0277598-.0462283l.470933-.343346c.0289803-.0210866.069063-.016622.0927283.0102795l.197689.225012c.0246575.028063.0225669.0705906-.00471654.0961378l-.439862.413193c-.0128661.0120827-.0298346.0187638-.0473701.0187598z" fill="#e7500f" data-original="#000000"/><path id="_430736240" d="m4.83167 5.14319h-.0879724c-.0249882 0-.0480827-.0134961-.0603425-.0352913l-.0923583-.16426c-.0187638-.0333071-.00689764-.0755039.0263898-.0942283.0334134-.0187559.0755748-.00690551.0943189.0264252l.0724882.128933h.00697638l.0724567-.128937c.0187638-.0333346.0608858-.0451614.0942913-.0264213.0333189.0187165.0451811.0609213.0264252.0942441l-.0923858.164228c-.0122205.0217874-.0353346.0353071-.0602874.0353071z" fill="#e7500f" data-original="#000000"/><path id="_430735448" d="m4.56152 6.12242c-.00421654 0-.00854724-.00038583-.012752-.00117323-.0375906-.00701969-.0623661-.043126-.0553898-.0807126l.182177-.979217c.00708661-.0376063.043122-.0623976.0807244-.055378.0120709.00220079.0225906.00737795.0313661.0146102.0088189-.00724803.0193465-.0123898.0313622-.0146102.0376378-.00699213.0736535.0177913.080752.055378l.182205.979213c.00692126.0375787-.0178268.0737205-.055437.0807165-.0374606.00698819-.0736693-.0177992-.0806299-.0553858l-.158248-.850087-.158213.850087c-.00616535.0332835-.0352441.0565591-.0679173.0565591z" fill="#e7500f" data-original="#000000"/><path id="_430735592" d="m1.27949 2.07987c-.0177913 0-.0354488-.00673622-.0489094-.0202402l-.110547-.110504c-.0270354-.0270394-.0270354-.0708386 0-.097878.0270354-.0270276.0708937-.0270197.0978071 0l.0616496.0615433.254622-.254626c.0270394-.0270354.0707598-.0270118.0977953.00002362.0270591.0270118.0270394.0708504 0 .0978819l-.30348.30352c-.0134646.0135197-.0312756.0202992-.048937.0202795z" fill="#e7500f" data-original="#000000"/><path id="_430735304" d="m1.27949 3.55889c-.0177913 0-.0354488-.00674016-.0489094-.0202598l-.110547-.110484c-.0270354-.0270354-.0270354-.0708465 0-.0978819.0270354-.0270236.0708937-.0270236.0978071 0l.0616496.0615472.254622-.254626c.0270394-.0270354.0707598-.0270157.0977953.00001575.0270591.0270236.0270394.0708504 0 .0978858l-.30348.303528c-.0134646.0135197-.0312756.0202874-.048937.0202756z" fill="#e7500f" data-original="#000000"/><path id="_430735688" d="m1.27949 5.03791c-.0177913 0-.0354488-.00674409-.0489094-.0202598l-.110547-.110508c-.0270354-.0270394-.0270354-.0708386 0-.0978622.0270354-.0270472.0708937-.0270354.0979291-.00001181l.0615276.0615354.254622-.254594c.0270394-.0270354.0707598-.0270236.0977953.00001181.0270591.0270236.0270394.0708425 0 .0978819l-.30348.303531c-.0134646.0135197-.0312756.0202835-.048937.0202756z" fill="#e7500f" data-original="#000000"/></g></g></g></svg>
